<svg width="19" height="19" viewBox="0 0 19 19" fill="none" xmlns="http://www.w3.org/2000/svg">
<path d="M17.3795 9.49994C17.3795 9.96782 17.1055 10.3898 16.7153 10.7745C16.4817 11.0041 16.2094 11.2242 15.9695 11.4474C15.7779 11.6256 15.6053 11.8005 15.5246 11.9953C15.4399 12.1987 15.4343 12.4513 15.4415 12.7181C15.4502 13.0474 15.4858 13.3949 15.4882 13.7195C15.4929 14.2666 15.3908 14.7519 15.0718 15.0717C14.7519 15.3907 14.2666 15.4929 13.7196 15.4881C13.395 15.4849 13.0475 15.4501 12.7189 15.4414C12.4521 15.4343 12.1988 15.4398 11.9953 15.5245C11.8006 15.6053 11.6256 15.7779 11.4475 15.9694C11.2243 16.2093 11.0042 16.4817 10.7746 16.7144C10.3898 17.1055 9.96788 17.3794 9.5 17.3794C9.03213 17.3794 8.61017 17.1055 8.22542 16.7144C7.99584 16.4817 7.77575 16.2093 7.5525 15.9694C7.37438 15.7779 7.19863 15.6053 7.00467 15.5245C6.80121 15.4398 6.54788 15.4343 6.28188 15.4414C5.95254 15.4501 5.605 15.4849 5.28042 15.4881C4.73338 15.4929 4.24729 15.3907 3.92825 15.0717C3.60842 14.7519 3.50709 14.2666 3.51184 13.7195C3.51421 13.3949 3.54984 13.0474 3.55854 12.7181C3.56567 12.4513 3.56013 12.1987 3.47542 11.9945C3.39467 11.8005 3.22209 11.6256 3.0305 11.4474C2.79142 11.2242 2.51909 11.0041 2.28554 10.7745C1.89525 10.3898 1.62054 9.96782 1.62054 9.49994C1.62054 9.03207 1.89525 8.61011 2.28554 8.22536C2.51909 7.99578 2.79142 7.77569 3.0305 7.55244C3.22209 7.37432 3.39467 7.19936 3.47542 7.0054C3.56013 6.80115 3.56567 6.54861 3.55854 6.28182C3.54984 5.95248 3.51421 5.60494 3.51184 5.28036C3.50709 4.73332 3.60842 4.24803 3.92825 3.92819C4.24729 3.60915 4.73338 3.50703 5.28042 3.51178C5.605 3.51494 5.95254 3.54978 6.28188 3.55848C6.54788 3.56561 6.80121 3.56007 7.00467 3.47536C7.19863 3.39461 7.37438 3.22203 7.5525 3.03044C7.77575 2.79057 7.99584 2.51823 8.22542 2.28548C8.61017 1.8944 9.03213 1.62048 9.5 1.62048C9.96788 1.62048 10.3898 1.8944 10.7746 2.28548C11.0042 2.51823 11.2243 2.79057 11.4475 3.03044C11.6256 3.22203 11.8006 3.39461 11.9953 3.47536C12.1988 3.56007 12.4521 3.56561 12.7189 3.55848C13.0475 3.54978 13.395 3.51494 13.7196 3.51178C14.2666 3.50703 14.7519 3.60915 15.0718 3.92819C15.3908 4.24803 15.4929 4.73332 15.4882 5.28036C15.4858 5.60494 15.4502 5.95248 15.4415 6.28182C15.4343 6.54861 15.4399 6.80115 15.5246 7.00461C15.6053 7.19936 15.7779 7.37432 15.9695 7.55244C16.2094 7.77569 16.4817 7.99578 16.7153 8.22536C17.1055 8.61011 17.3795 9.03207 17.3795 9.49994ZM16.5878 9.49994C16.5878 9.35111 16.5181 9.2189 16.4247 9.08986C16.2949 8.91094 16.1175 8.7439 15.9323 8.57844C15.4708 8.16598 14.9783 7.75511 14.7931 7.30861C14.6015 6.84548 14.653 6.20107 14.6854 5.58436C14.6989 5.33498 14.7068 5.09194 14.6735 4.87582C14.6506 4.72461 14.6102 4.58686 14.512 4.48869C14.4131 4.38973 14.2753 4.34936 14.1241 4.3264C13.908 4.29315 13.665 4.30107 13.4156 4.31453C12.7989 4.34698 12.1545 4.39844 11.6921 4.20686C11.2448 4.02161 10.834 3.52998 10.4215 3.06765C10.256 2.8824 10.089 2.70507 9.91009 2.57523C9.78104 2.48182 9.64884 2.41215 9.5 2.41215C9.35196 2.41215 9.21896 2.48182 9.08992 2.57523C8.911 2.70507 8.74396 2.8824 8.5785 3.06765C8.16605 3.52998 7.75517 4.02161 7.30788 4.20686C6.84554 4.39844 6.20113 4.34698 5.58442 4.31453C5.33504 4.30107 5.092 4.29315 4.87588 4.3264C4.72388 4.34936 4.58692 4.38973 4.48796 4.48869C4.389 4.58765 4.34942 4.72461 4.32646 4.87582C4.29321 5.09194 4.30113 5.33498 4.31379 5.58436C4.34704 6.20107 4.3985 6.84548 4.20692 7.30782C4.02167 7.75511 3.53004 8.16598 3.06771 8.57844C2.88246 8.7439 2.70513 8.91094 2.57529 9.08986C2.48188 9.2189 2.41221 9.35111 2.41221 9.49994C2.41221 9.64878 2.48188 9.78098 2.57529 9.91003C2.70513 10.0889 2.88246 10.256 3.06771 10.4214C3.53004 10.8339 4.02167 11.2448 4.20692 11.6921C4.3985 12.1544 4.34704 12.7988 4.31379 13.4155C4.30113 13.6649 4.29321 13.9079 4.32646 14.1241C4.34942 14.2753 4.389 14.413 4.48796 14.5112C4.58692 14.6102 4.72388 14.6505 4.87588 14.6735C5.092 14.7067 5.33504 14.6988 5.58442 14.6854C6.20113 14.6529 6.84554 14.6014 7.30788 14.793C7.75517 14.9783 8.16605 15.4699 8.5785 15.9322C8.74396 16.1175 8.911 16.2948 9.08992 16.4247C9.21896 16.5181 9.35196 16.5877 9.5 16.5877C9.64884 16.5877 9.78104 16.5181 9.91009 16.4247C10.089 16.2948 10.256 16.1175 10.4215 15.9322C10.834 15.4699 11.2448 14.9783 11.6921 14.793C12.1545 14.6014 12.7989 14.6529 13.4156 14.6854C13.665 14.6988 13.908 14.7067 14.1241 14.6735C14.2753 14.6505 14.4131 14.6102 14.512 14.5112C14.6102 14.413 14.6506 14.2753 14.6735 14.1241C14.7068 13.9079 14.6989 13.6649 14.6854 13.4155C14.653 12.7988 14.6015 12.1544 14.7931 11.6913C14.9783 11.2448 15.4708 10.8339 15.9323 10.4214C16.1175 10.256 16.2949 10.0889 16.4247 9.91003C16.5181 9.78098 16.5878 9.64878 16.5878 9.49994ZM8.25075 8.10503C8.17611 8.17962 8.0875 8.23878 7.98999 8.27913C7.89248 8.31948 7.78798 8.34023 7.68245 8.34019C7.57692 8.34015 7.47244 8.31933 7.37496 8.27892C7.27748 8.2385 7.18891 8.17928 7.11432 8.10463C7.03972 8.02998 6.98056 7.94138 6.94021 7.84387C6.89986 7.74636 6.87911 7.64186 6.87915 7.53633C6.87919 7.4308 6.90001 7.32631 6.94043 7.22883C6.98084 7.13135 7.04007 7.04279 7.11471 6.96819C7.26547 6.81754 7.46989 6.73295 7.68301 6.73303C7.89614 6.7331 8.1005 6.81783 8.25115 6.96859C8.4018 7.11934 8.48639 7.32377 8.48632 7.53689C8.48624 7.75001 8.40151 7.95438 8.25075 8.10503ZM11.7903 6.64994C11.865 6.57784 11.9649 6.53794 12.0687 6.53884C12.1725 6.53974 12.2718 6.58137 12.3452 6.65476C12.4186 6.72815 12.4602 6.82744 12.4611 6.93122C12.462 7.03501 12.4221 7.135 12.35 7.20965L7.20971 12.3499C7.13506 12.422 7.03507 12.4619 6.93128 12.461C6.8275 12.4601 6.72822 12.4185 6.65483 12.3451C6.58143 12.2717 6.5398 12.1725 6.5389 12.0687C6.538 11.9649 6.5779 11.8649 6.65 11.7902L11.7903 6.64994ZM10.7493 10.8957C10.8239 10.8211 10.9125 10.7619 11.01 10.7215C11.1075 10.6812 11.212 10.6604 11.3176 10.6605C11.4231 10.6605 11.5276 10.6813 11.6251 10.7218C11.7225 10.7622 11.8111 10.8214 11.8857 10.896C11.9603 10.9707 12.0194 11.0593 12.0598 11.1568C12.1001 11.2543 12.1209 11.3588 12.1209 11.4643C12.1208 11.5699 12.1 11.6744 12.0596 11.7718C12.0192 11.8693 11.9599 11.9579 11.8853 12.0325C11.7345 12.1831 11.5301 12.2677 11.317 12.2677C11.1039 12.2676 10.8995 12.1828 10.7489 12.0321C10.5982 11.8813 10.5136 11.6769 10.5137 11.4638C10.5138 11.2507 10.5985 11.0463 10.7493 10.8957Z" fill="black"/>
</svg>
