<svg width="40" height="40" viewBox="0 0 40 40" fill="none" xmlns="http://www.w3.org/2000/svg">
<path d="M0 16C0 7.16344 7.16344 0 16 0H24C32.8366 0 40 7.16344 40 16V24C40 32.8366 32.8366 40 24 40H16C7.16344 40 0 32.8366 0 24V16Z" fill="#0066FF"/>
<path d="M19.678 27.45C18.382 27.45 17.266 27.198 16.33 26.694C15.406 26.19 14.692 25.488 14.188 24.588C13.696 23.688 13.45 22.656 13.45 21.492C13.45 19.98 13.732 18.66 14.296 17.532C14.872 16.404 15.688 15.528 16.744 14.904C17.812 14.268 19.09 13.95 20.578 13.95C21.298 13.95 21.808 14.1 22.108 14.4C22.408 14.688 22.558 15.114 22.558 15.678C22.558 15.762 22.552 15.84 22.54 15.912C22.54 15.984 22.534 16.068 22.522 16.164C22.978 15.804 23.47 15.624 23.998 15.624C24.442 15.624 24.868 15.762 25.276 16.038C25.684 16.302 26.014 16.716 26.266 17.28C26.53 17.844 26.662 18.558 26.662 19.422C26.662 20.706 26.464 21.846 26.068 22.842C25.684 23.838 25.156 24.678 24.484 25.362C23.824 26.046 23.08 26.568 22.252 26.928C21.424 27.276 20.566 27.45 19.678 27.45ZM19.822 24.822C20.41 24.822 20.944 24.594 21.424 24.138C21.916 23.67 22.252 23.07 22.432 22.338C22.012 21.822 21.712 21.306 21.532 20.79C21.364 20.262 21.28 19.74 21.28 19.224C21.28 18.684 21.346 18.204 21.478 17.784C21.61 17.364 21.784 17.004 22 16.704C21.784 16.668 21.568 16.65 21.352 16.65C20.68 16.65 20.092 16.794 19.588 17.082C19.096 17.37 18.682 17.754 18.346 18.234C18.022 18.702 17.776 19.218 17.608 19.782C17.452 20.334 17.374 20.88 17.374 21.42C17.374 22.032 17.464 22.596 17.644 23.112C17.836 23.628 18.112 24.042 18.472 24.354C18.844 24.666 19.294 24.822 19.822 24.822Z" fill="white"/>
</svg>
