<svg width="280" height="40" viewBox="0 0 280 40" fill="none" xmlns="http://www.w3.org/2000/svg">
<path d="M0 16C0 7.16344 7.16344 0 16 0H24C32.8366 0 40 7.16344 40 16V24C40 32.8366 32.8366 40 24 40H16C7.16344 40 0 32.8366 0 24V16Z" fill="white"/>
<path d="M19.42 27.5C17.98 27.5 16.74 27.22 15.7 26.66C14.6733 26.1 13.88 25.32 13.32 24.32C12.7733 23.32 12.5 22.1733 12.5 20.88C12.5 19.2 12.8133 17.7333 13.44 16.48C14.08 15.2267 14.9867 14.2533 16.16 13.56C17.3467 12.8533 18.7667 12.5 20.42 12.5C21.22 12.5 21.7867 12.6667 22.12 13C22.4533 13.32 22.62 13.7933 22.62 14.42C22.62 14.5133 22.6133 14.6 22.6 14.68C22.6 14.76 22.5933 14.8533 22.58 14.96C23.0867 14.56 23.6333 14.36 24.22 14.36C24.7133 14.36 25.1867 14.5133 25.64 14.82C26.0933 15.1133 26.46 15.5733 26.74 16.2C27.0333 16.8267 27.18 17.62 27.18 18.58C27.18 20.0067 26.96 21.2733 26.52 22.38C26.0933 23.4867 25.5067 24.42 24.76 25.18C24.0267 25.94 23.2 26.52 22.28 26.92C21.36 27.3067 20.4067 27.5 19.42 27.5ZM19.58 24.58C20.2333 24.58 20.8267 24.3267 21.36 23.82C21.9067 23.3 22.28 22.6333 22.48 21.82C22.0133 21.2467 21.68 20.6733 21.48 20.1C21.2933 19.5133 21.2 18.9333 21.2 18.36C21.2 17.76 21.2733 17.2267 21.42 16.76C21.5667 16.2933 21.76 15.8933 22 15.56C21.76 15.52 21.52 15.5 21.28 15.5C20.5333 15.5 19.88 15.66 19.32 15.98C18.7733 16.3 18.3133 16.7267 17.94 17.26C17.58 17.78 17.3067 18.3533 17.12 18.98C16.9467 19.5933 16.86 20.2 16.86 20.8C16.86 21.48 16.96 22.1067 17.16 22.68C17.3733 23.2533 17.68 23.7133 18.08 24.06C18.4933 24.4067 18.9933 24.58 19.58 24.58Z" fill="#0066FF"/>
<path d="M64.6 30.495C64.6 31.755 64.21 32.775 63.43 33.555C62.65 34.305 61.63 34.68 60.37 34.68H57.13C55.87 34.68 54.85 34.305 54.07 33.555C53.29 32.775 52.9 31.755 52.9 30.495V7.005C52.9 5.745 53.29 4.74 54.07 3.99C54.85 3.21 55.87 2.82 57.13 2.82H60.37C61.63 2.82 62.65 3.21 63.43 3.99C64.21 4.74 64.6 5.745 64.6 7.005V30.495ZM57.4 7.005C57.25 7.005 57.175 7.08 57.175 7.23V30.27C57.175 30.42 57.25 30.495 57.4 30.495H60.1C60.25 30.495 60.325 30.42 60.325 30.27V7.23C60.325 7.08 60.25 7.005 60.1 7.005H57.4ZM65.9412 12H67.3812V7.185C67.3812 5.925 67.7712 4.92 68.5512 4.17C69.3312 3.39 70.3512 3 71.6112 3H74.2212V7.185H71.6562V12H73.8612L73.4112 16.185H71.6562V34.5H67.3812V16.185H65.4912L65.9412 12ZM75.5652 12H77.0052V7.185C77.0052 5.925 77.3952 4.92 78.1752 4.17C78.9552 3.39 79.9752 3 81.2352 3H83.8452V7.185H81.2802V12H83.4852L83.0352 16.185H81.2802V34.5H77.0052V16.185H75.1152L75.5652 12ZM84.5406 30.495V16.005C84.5406 14.745 84.9306 13.74 85.7106 12.99C86.4906 12.21 87.5106 11.82 88.7706 11.82H91.5606C92.8206 11.82 93.8406 12.21 94.6206 12.99C95.4006 13.74 95.7906 14.745 95.7906 16.005V21.54H91.5156V16.23C91.5156 16.08 91.4406 16.005 91.2906 16.005H89.0406C88.8906 16.005 88.8156 16.08 88.8156 16.23V21.54H95.7906V25.725H88.8156V30.27C88.8156 30.42 88.8906 30.495 89.0406 30.495H91.2906C91.4406 30.495 91.5156 30.435 91.5156 30.315V27.84H95.7906V30.495C95.7906 31.755 95.4006 32.775 94.6206 33.555C93.8406 34.305 92.8206 34.68 91.5606 34.68H88.7706C87.5106 34.68 86.4906 34.305 85.7106 33.555C84.9306 32.775 84.5406 31.755 84.5406 30.495ZM102.717 12V13.98L103.932 12H106.947V16.365H102.717V34.5H98.4421V16.185H97.3621L97.8121 12H102.717ZM108.315 27.435L112.59 27.885V30.09C112.59 30.24 112.665 30.315 112.815 30.315H114.615C114.765 30.315 114.84 30.24 114.84 30.09V25.905L110.835 24.195C110.355 23.985 109.815 23.655 109.215 23.205C108.615 22.755 108.315 22.02 108.315 21V16.005C108.315 14.745 108.705 13.74 109.485 12.99C110.265 12.21 111.285 11.82 112.545 11.82H114.885C116.145 11.82 117.165 12.21 117.945 12.99C118.725 13.74 119.115 14.745 119.115 16.005V18.885L114.84 18.435V16.23C114.84 16.08 114.765 16.005 114.615 16.005H112.815C112.665 16.005 112.59 16.08 112.59 16.23V20.415L116.595 22.125C117.075 22.335 117.615 22.665 118.215 23.115C118.815 23.565 119.115 24.3 119.115 25.32V30.315C119.115 31.575 118.725 32.595 117.945 33.375C117.165 34.125 116.145 34.5 114.885 34.5H112.545C111.285 34.5 110.265 34.125 109.485 33.375C108.705 32.595 108.315 31.575 108.315 30.315V27.435ZM125.213 3L125.258 30.315H126.383L126.833 34.5H120.983L120.938 7.185H120.038L120.488 3H125.213ZM135.034 30.315V12H139.309V30.315H139.984L140.434 34.5H135.034V32.745L133.909 34.5H132.694C131.314 34.5 130.204 34.11 129.364 33.33C128.554 32.52 128.149 31.515 128.149 30.315V16.185H127.069L127.519 12H132.424V30.09C132.424 30.24 132.499 30.315 132.649 30.315H135.034ZM141.098 30.315H145.283V34.5H141.098V30.315ZM151.8 3L151.845 30.315H152.97L153.42 34.5H147.57L147.525 7.185H146.625L147.075 3H151.8ZM154.956 34.5V7.185H153.876L154.326 3H159.231V19.335L162.831 12H167.016L162.246 21.675L167.466 34.5H163.281L159.231 24.555V34.5H154.956Z" fill="white"/>
</svg>
