<svg width="175" height="40" viewBox="0 0 175 40" fill="none" xmlns="http://www.w3.org/2000/svg">
<path d="M0 16C0 7.16344 7.16344 0 16 0H24C32.8366 0 40 7.16344 40 16V24C40 32.8366 32.8366 40 24 40H16C7.16344 40 0 32.8366 0 24V16Z" fill="#0066FF"/>
<path d="M19.678 27.45C18.382 27.45 17.266 27.198 16.33 26.694C15.406 26.19 14.692 25.488 14.188 24.588C13.696 23.688 13.45 22.656 13.45 21.492C13.45 19.98 13.732 18.66 14.296 17.532C14.872 16.404 15.688 15.528 16.744 14.904C17.812 14.268 19.09 13.95 20.578 13.95C21.298 13.95 21.808 14.1 22.108 14.4C22.408 14.688 22.558 15.114 22.558 15.678C22.558 15.762 22.552 15.84 22.54 15.912C22.54 15.984 22.534 16.068 22.522 16.164C22.978 15.804 23.47 15.624 23.998 15.624C24.442 15.624 24.868 15.762 25.276 16.038C25.684 16.302 26.014 16.716 26.266 17.28C26.53 17.844 26.662 18.558 26.662 19.422C26.662 20.706 26.464 21.846 26.068 22.842C25.684 23.838 25.156 24.678 24.484 25.362C23.824 26.046 23.08 26.568 22.252 26.928C21.424 27.276 20.566 27.45 19.678 27.45ZM19.822 24.822C20.41 24.822 20.944 24.594 21.424 24.138C21.916 23.67 22.252 23.07 22.432 22.338C22.012 21.822 21.712 21.306 21.532 20.79C21.364 20.262 21.28 19.74 21.28 19.224C21.28 18.684 21.346 18.204 21.478 17.784C21.61 17.364 21.784 17.004 22 16.704C21.784 16.668 21.568 16.65 21.352 16.65C20.68 16.65 20.092 16.794 19.588 17.082C19.096 17.37 18.682 17.754 18.346 18.234C18.022 18.702 17.776 19.218 17.608 19.782C17.452 20.334 17.374 20.88 17.374 21.42C17.374 22.032 17.464 22.596 17.644 23.112C17.836 23.628 18.112 24.042 18.472 24.354C18.844 24.666 19.294 24.822 19.822 24.822Z" fill="white"/>
<path d="M63.48 30.351C63.48 31.499 63.1247 32.4283 62.414 33.139C61.7033 33.8223 60.774 34.164 59.626 34.164H56.674C55.526 34.164 54.5967 33.8223 53.886 33.139C53.1753 32.4283 52.82 31.499 52.82 30.351V8.949C52.82 7.801 53.1753 6.88533 53.886 6.202C54.5967 5.49133 55.526 5.136 56.674 5.136H59.626C60.774 5.136 61.7033 5.49133 62.414 6.202C63.1247 6.88533 63.48 7.801 63.48 8.949V30.351ZM56.92 8.949C56.7833 8.949 56.715 9.01733 56.715 9.154V30.146C56.715 30.2827 56.7833 30.351 56.92 30.351H59.38C59.5167 30.351 59.585 30.2827 59.585 30.146V9.154C59.585 9.01733 59.5167 8.949 59.38 8.949H56.92ZM73.9994 17.723L73.5894 21.536H69.4074V34H65.5124V9.113H64.8974L65.3074 5.3H74.8194L74.4094 9.113H69.4074V17.723H73.9994ZM84.93 17.723L84.52 21.536H80.338V34H76.443V9.113H75.828L76.238 5.3H85.75L85.34 9.113H80.338V17.723H84.93ZM96.6807 30.187L96.3527 34H87.3737V9.113H86.7587L87.1687 5.3H96.6807L96.2707 9.113H91.2687V17.723H95.8607L95.4507 21.536H91.2687V30.187H96.6807ZM97.6942 9.113L98.1042 5.3H104.582C105.73 5.3 106.66 5.65533 107.37 6.366C108.081 7.04933 108.436 7.965 108.436 9.113V21.946C108.436 22.5473 108.313 23.094 108.067 23.586C107.821 24.0507 107.493 24.447 107.083 24.775L109.707 34H105.771L103.434 25.759H102.204V34H98.3092V9.113H97.6942ZM104.336 9.113H102.204V21.946H104.336C104.473 21.946 104.541 21.8777 104.541 21.741V9.318C104.541 9.18133 104.473 9.113 104.336 9.113ZM114.011 25.8V30.146C114.011 30.2827 114.079 30.351 114.216 30.351H115.856C115.993 30.351 116.061 30.2827 116.061 30.146V22.766L112.822 21.331C112.576 21.249 112.234 21.1123 111.797 20.921C111.36 20.7023 110.963 20.388 110.608 19.978C110.28 19.568 110.116 19.0077 110.116 18.297V8.949C110.116 7.801 110.471 6.88533 111.182 6.202C111.893 5.49133 112.822 5.136 113.97 5.136H116.102C117.25 5.136 118.179 5.49133 118.89 6.202C119.601 6.88533 119.956 7.801 119.956 8.949V15.017L116.061 14.689V9.154C116.061 9.01733 115.993 8.949 115.856 8.949H114.216C114.079 8.949 114.011 9.01733 114.011 9.154V17.723L117.25 19.158C117.496 19.2673 117.838 19.4177 118.275 19.609C118.712 19.8003 119.095 20.101 119.423 20.511C119.778 20.921 119.956 21.4813 119.956 22.192V30.351C119.956 31.499 119.601 32.4283 118.89 33.139C118.179 33.8223 117.25 34.164 116.102 34.164H113.97C112.822 34.164 111.893 33.8223 111.182 33.139C110.471 32.4283 110.116 31.499 110.116 30.351V25.8H114.011ZM132.139 30.187L131.811 34H122.012V9.113H121.397L121.807 5.3H125.907V30.187H132.139ZM143.633 30.351C143.633 31.499 143.278 32.4283 142.567 33.139C141.857 33.8223 140.927 34.164 139.779 34.164H137.237C136.089 34.164 135.16 33.8223 134.449 33.139C133.739 32.4283 133.383 31.499 133.383 30.351V9.113H132.768L133.178 5.3H137.278V30.146C137.278 30.2827 137.347 30.351 137.483 30.351H139.533C139.67 30.351 139.738 30.2827 139.738 30.146V5.382H143.633V30.351ZM145.27 30.187H149.083V34H145.27V30.187ZM161.048 30.187L160.72 34H150.921V9.113H150.306L150.716 5.3H154.816V30.187H161.048ZM162.492 34V9.113H161.877L162.287 5.3H166.387V13.295L169.954 5.3H174.259L169.093 16.862L174.669 34H170.364L166.387 21.782V34H162.492Z" fill="white"/>
</svg>
